<svg version="1.1" id="レイヤー_1" xmlns="http://www.w3.org/2000/svg" x="0" y="0" viewBox="0 0 26 25.2" xml:space="preserve"><style>.st0{fill:#9a9a9a}</style><path class="st0" d="M25.2 2.9h-3.7v1.2c0 1.6-1.3 2.9-2.9 2.9-1.6 0-2.9-1.3-2.9-2.9V2.9h-5.3v1.2C10.4 5.7 9.1 7 7.5 7 5.9 7 4.6 5.7 4.6 4.1V2.9H.8c-.4 0-.8.4-.8.9v20.6c0 .5.4.9.8.9h24.3c.5 0 .8-.4.8-.9V3.8c.1-.5-.3-.9-.7-.9zm-21.9 19V9.3h19.5v12.6H3.3z"/><path class="st0" d="M7.5 5.4c.7 0 1.3-.6 1.3-1.3V1.3C8.7.6 8.2 0 7.5 0c-.7 0-1.3.6-1.3 1.3v2.8c0 .7.6 1.3 1.3 1.3zm11 0c.7 0 1.3-.6 1.3-1.3V1.3c0-.7-.6-1.3-1.3-1.3-.7 0-1.3.6-1.3 1.3v2.8c.1.7.6 1.3 1.3 1.3zm-8.8 6.5H6.8v3h2.9v-3zm0 4.5H6.8v3h2.9v-3zm4.8-4.5h-2.9v3h2.9v-3zm0 4.5h-2.9v3h2.9v-3zm4.7-4.5h-2.9v3h2.9v-3zm0 4.5h-2.9v3h2.9v-3z"/></svg>