<svg data-name="レイヤー 1" xmlns="http://www.w3.org/2000/svg" viewBox="0 0 560 560"><defs><linearGradient id="a" x1="40" y1="280" x2="520" y2="280" gradientUnits="userSpaceOnUse"><stop offset="0" stop-color="#4432db"/><stop offset=".39" stop-color="#4934db"/><stop offset="1" stop-color="#ff80db"/></linearGradient></defs><path d="M225.34 191.37l-22.35.69a2.63 2.63 0 01-2.76-2l-8.56-23.5a7.95 7.95 0 00-15.53 0l-8.57 23.5c-.59 1.4-.59 1.4-2 2l-.34.12-.46-.12-22.36-.69a6.47 6.47 0 00-.76-.05 7.51 7.51 0 00-7.69 7.35 9.94 9.94 0 004.51 7.41l16.23 12.73a2.76 2.76 0 011.27 2.07 3.88 3.88 0 01-.46 1.73l-10 22.81a14.57 14.57 0 00-1.16 5.21 2 2 0 000 .35 7 7 0 007.18 6.82 13.25 13.25 0 007.07-2.31l23.4-16.44a3.41 3.41 0 012-.69 4.07 4.07 0 011.73.69l23.4 16.44a13.58 13.58 0 007.14 2.34h.22a7.06 7.06 0 006.95-7.17 13.58 13.58 0 00-1.27-5.21l-10-22.81a6.51 6.51 0 01-.46-1.73 3.21 3.21 0 011.28-2.07l16.21-12.73a9.78 9.78 0 004.63-7.53c0-.23 0-.45-.06-.68a7.57 7.57 0 00-8.43-6.53zm144.84 7.77h138.73a11.09 11.09 0 000-22.18H370.18a11.09 11.09 0 100 22.18zM185.21 64.5A145.33 145.33 0 0040 209.61a143.73 143.73 0 0045.76 105.62l1.16 1.09v169a10.16 10.16 0 005.34 8.94 10.09 10.09 0 0010.39-.44l82.5-53.82L266 493.83a10.06 10.06 0 005.66 1.65 10.16 10.16 0 0010.19-10.15V317.88l1.21-1.1A145.05 145.05 0 00185.21 64.5zm76.27 401.86l-70.63-47.07a10.22 10.22 0 00-11.21-.05l-72.36 47.33V332.19l5.55 3.2a144.72 144.72 0 00143.14.92l5.5-3.08zm-76.27-131.89a125 125 0 01-124.86-124.8 124.86 124.86 0 11124.86 124.8zm323.7-66.92H370.18a11.09 11.09 0 100 22.18h138.73a11.09 11.09 0 000-22.18zm0 96.15H370.18a11.09 11.09 0 100 22.18h138.73a11.09 11.09 0 000-22.18z" fill="url(#a)"/></svg>