<?xml version="1.0" encoding="utf-8"?>
<!-- Generator: Adobe Illustrator 25.0.0, SVG Export Plug-In . SVG Version: 6.00 Build 0)  -->
<svg version="1.1" id="レイヤー_1" xmlns="http://www.w3.org/2000/svg" xmlns:xlink="http://www.w3.org/1999/xlink" x="0px"
	 y="0px" viewBox="0 0 26 25.2" style="enable-background:new 0 0 26 25.2;" xml:space="preserve">
<style type="text/css">
	.st0{fill:#9A9A9A;}
</style>
<path class="st0" d="M25.2,2.9h-3.7v1.2c0,1.6-1.3,2.9-2.9,2.9c-1.6,0-2.9-1.3-2.9-2.9V2.9h-5.3v1.2C10.4,5.7,9.1,7,7.5,7
	C5.9,7,4.6,5.7,4.6,4.1V2.9H0.8C0.4,2.9,0,3.3,0,3.8v20.6c0,0.5,0.4,0.9,0.8,0.9h24.3c0.5,0,0.8-0.4,0.8-0.9V3.8
	C26,3.3,25.6,2.9,25.2,2.9z M3.3,21.9V9.3h19.5v12.6H3.3z"/>
<path class="st0" d="M7.5,5.4c0.7,0,1.3-0.6,1.3-1.3V2.9V1.3C8.7,0.6,8.2,0,7.5,0C6.8,0,6.2,0.6,6.2,1.3v1.6v1.2
	C6.2,4.8,6.8,5.4,7.5,5.4z"/>
<path class="st0" d="M18.5,5.4c0.7,0,1.3-0.6,1.3-1.3V2.9V1.3c0-0.7-0.6-1.3-1.3-1.3c-0.7,0-1.3,0.6-1.3,1.3v1.6v1.2
	C17.3,4.8,17.8,5.4,18.5,5.4z"/>
<path class="st0" d="M9.7,11.9H6.8v3h2.9V11.9z"/>
<path class="st0" d="M9.7,16.4H6.8v3h2.9V16.4z"/>
<path class="st0" d="M14.5,11.9h-2.9v3h2.9V11.9z"/>
<path class="st0" d="M14.5,16.4h-2.9v3h2.9V16.4z"/>
<path class="st0" d="M19.2,11.9h-2.9v3h2.9V11.9z"/>
<path class="st0" d="M19.2,16.4h-2.9v3h2.9V16.4z"/>
</svg>
