<svg id="レイヤー_1" data-name="レイヤー 1" xmlns="http://www.w3.org/2000/svg" xmlns:xlink="http://www.w3.org/1999/xlink" viewBox="0 0 560 560"><defs><style>.cls-1{fill:url(#名称未設定グラデーション_3);}</style><linearGradient id="名称未設定グラデーション_3" x1="40" y1="280" x2="520" y2="280" gradientUnits="userSpaceOnUse"><stop offset="0" stop-color="#4432db"/><stop offset="0.39" stop-color="#4934db"/><stop offset="1" stop-color="#ff80db"/></linearGradient></defs><path class="cls-1" d="M225.34,191.37l-22.35.69a2.63,2.63,0,0,1-2.76-2l-8.56-23.5a7.95,7.95,0,0,0-15.53,0l-8.57,23.5c-.59,1.4-.59,1.4-2,2l-.34.12-.46-.12-22.36-.69a6.47,6.47,0,0,0-.76-.05,7.51,7.51,0,0,0-7.69,7.35,9.94,9.94,0,0,0,4.51,7.41l16.23,12.73a2.76,2.76,0,0,1,1.27,2.07,3.88,3.88,0,0,1-.46,1.73l-10,22.81a14.57,14.57,0,0,0-1.16,5.21,2,2,0,0,0,0,.35,7,7,0,0,0,7.18,6.82,13.25,13.25,0,0,0,7.07-2.31l23.4-16.44a3.41,3.41,0,0,1,2-.69,4.07,4.07,0,0,1,1.73.69l23.4,16.44v0a13.58,13.58,0,0,0,7.14,2.34h.22a7.06,7.06,0,0,0,6.95-7.17,13.58,13.58,0,0,0-1.27-5.21l-10-22.81a6.51,6.51,0,0,1-.46-1.73,3.21,3.21,0,0,1,1.28-2.07l16.21-12.73a9.78,9.78,0,0,0,4.63-7.53c0-.23,0-.45-.06-.68A7.57,7.57,0,0,0,225.34,191.37Zm144.84,7.77H508.91a11.09,11.09,0,0,0,0-22.18H370.18a11.09,11.09,0,1,0,0,22.18ZM185.21,64.5A145.33,145.33,0,0,0,40,209.61,143.73,143.73,0,0,0,85.76,315.23l1.16,1.09v169a10.16,10.16,0,0,0,5.34,8.94,10.09,10.09,0,0,0,10.39-.44L185.15,440,266,493.83a10.06,10.06,0,0,0,5.66,1.65,10.16,10.16,0,0,0,10.19-10.15V317.88l1.21-1.1A145.05,145.05,0,0,0,185.21,64.5Zm76.27,401.86-70.63-47.07a10.22,10.22,0,0,0-11.21-.05l-72.36,47.33V332.19l5.55,3.2a144.72,144.72,0,0,0,143.14.92l5.5-3.08ZM185.21,334.47A125,125,0,0,1,60.35,209.67v0A124.86,124.86,0,1,1,185.21,334.47Zm323.7-66.92H370.18a11.09,11.09,0,1,0,0,22.18H508.91a11.09,11.09,0,0,0,0-22.18Zm0,96.15H370.18a11.09,11.09,0,1,0,0,22.18H508.91a11.09,11.09,0,0,0,0-22.18Z"/></svg>